<svg xmlns="http://www.w3.org/2000/svg" xmlns:xlink="http://www.w3.org/1999/xlink" version="1.1" width="256" height="256" viewBox="0 0 256 256" xml:space="preserve">

<defs>
</defs>
<g style="stroke: none; stroke-width: 0; stroke-dasharray: none; stroke-linecap: butt; stroke-linejoin: miter; stroke-miterlimit: 10; fill: none; fill-rule: nonzero; opacity: 1;" transform="translate(1.4065934065934016 1.4065934065934016) scale(2.81 2.81)" >
	<path d="M 90 46.996 c 0.002 -0.401 -0.159 -0.785 -0.446 -1.066 c -3.742 -3.663 -8.688 -5.681 -13.925 -5.681 c -1.105 0 -2.181 0.113 -3.237 0.287 c -1.57 -5.054 -3.775 -9.792 -6.538 -14.089 l 1.534 -0.456 c 0.63 -0.187 1.061 -0.765 1.061 -1.422 v -6.44 c 0 -0.78 -0.604 -1.427 -1.381 -1.48 c -3.003 -0.202 -5.249 0.774 -6.554 2.785 c -0.737 -0.813 -1.492 -1.608 -2.276 -2.369 c -0.534 -0.52 -1.371 -0.561 -1.953 -0.1 l -2.041 1.611 c -3.481 -1.871 -7.635 -1.926 -12.679 -0.129 c -0.772 0.275 -1.174 1.124 -0.899 1.896 c 0.275 0.772 1.125 1.174 1.896 0.899 c 4.443 -1.584 7.965 -1.505 10.763 0.218 c 7.639 11.693 8.69 21.16 2.86 25.995 c -4.838 4.014 -12.659 3.441 -15.908 0.294 c -2.499 -2.421 -2.067 -6.079 1.215 -10.302 c 0.007 -0.009 0.01 -0.02 0.017 -0.03 c 0.074 -0.1 0.138 -0.206 0.185 -0.323 c 0.006 -0.014 0.008 -0.029 0.013 -0.043 c 0.037 -0.099 0.062 -0.203 0.077 -0.311 c 0.005 -0.035 0.008 -0.07 0.011 -0.105 c 0.002 -0.033 0.01 -0.064 0.01 -0.098 c 0 -5.661 -4.606 -10.266 -10.266 -10.266 H 20.865 c -5.377 0 -9.794 4.158 -10.224 9.426 c -6.958 2.771 -9.294 11.514 -10.623 19.9 c -0.068 0.428 0.055 0.865 0.337 1.196 c 0.282 0.329 0.694 0.52 1.128 0.52 h 4.824 h 3.77 c -0.204 0.931 -0.309 1.883 -0.309 2.844 c 0 7.29 5.93 13.22 13.22 13.22 c 6.787 0 12.39 -5.143 13.13 -11.737 h 26.379 c 0.74 6.593 6.343 11.737 13.13 11.737 c 7.29 0 13.22 -5.93 13.22 -13.22 c 0 -3.217 -1.158 -6.167 -3.075 -8.462 l 3.772 -3.636 C 89.835 47.78 89.998 47.397 90 46.996 z M 65.482 19.627 v 3.836 l -1.39 0.413 c -0.49 -0.674 -0.984 -1.343 -1.503 -1.991 C 63.079 20.516 63.99 19.797 65.482 19.627 z M 20.865 29.238 h 10.673 c 3.517 0 6.46 2.5 7.148 5.816 H 13.717 C 14.404 31.738 17.348 29.238 20.865 29.238 z M 13.07 38.021 h 24.448 c -3.731 6.393 -0.859 10.354 0.695 11.859 c 4.67 4.526 14.325 4.455 19.866 -0.14 c 3.327 -2.759 9.69 -11.049 -1.717 -29.055 l 0.728 -0.575 c 5.616 5.755 9.862 13.013 12.411 21.114 c -7.533 2.445 -13.096 9.264 -13.704 17.448 H 36.117 c -0.051 -0.458 -0.12 -0.912 -0.219 -1.361 h 0.783 c 0.818 0 1.482 -0.663 1.484 -1.481 c 0.007 -4.014 -1.469 -7.707 -4.156 -10.4 c -2.708 -2.713 -6.459 -4.207 -10.561 -4.207 c -7.958 0 -15.432 5.459 -18.199 13.12 H 3.234 C 4.606 46.517 6.899 39.427 13.07 38.021 z M 23.447 44.192 c 3.309 0 6.314 1.185 8.461 3.335 c 1.796 1.799 2.909 4.181 3.208 6.818 H 8.431 C 11.046 48.44 17.177 44.192 23.447 44.192 z M 26.242 60.157 c 0 1.795 -1.46 3.255 -3.254 3.255 c -1.795 0 -3.254 -1.46 -3.254 -3.255 c 0 -1.192 0.659 -2.276 1.691 -2.844 h 3.138 C 25.599 57.887 26.242 58.969 26.242 60.157 z M 22.988 70.41 c -5.653 0 -10.253 -4.599 -10.253 -10.253 c 0 -0.968 0.136 -1.924 0.401 -2.844 h 4.335 c -0.446 0.865 -0.704 1.832 -0.704 2.844 c 0 3.431 2.791 6.222 6.221 6.222 c 3.43 0 6.221 -2.791 6.221 -6.222 c 0 -1.012 -0.256 -1.979 -0.702 -2.844 h 4.332 c 0.265 0.918 0.401 1.876 0.401 2.844 C 33.241 65.811 28.641 70.41 22.988 70.41 z M 75.628 70.41 c -5.653 0 -10.252 -4.599 -10.252 -10.253 c 0 -5.653 4.599 -10.252 10.252 -10.252 c 5.654 0 10.253 4.599 10.253 10.252 C 85.882 65.811 81.282 70.41 75.628 70.41 z M 83.619 49.65 c -2.222 -1.694 -4.987 -2.713 -7.991 -2.713 c -6.787 0 -12.39 5.143 -13.13 11.736 h -3.735 c 0.755 -8.647 8.025 -15.457 16.866 -15.457 c 3.943 0 7.693 1.344 10.71 3.813 L 83.619 49.65 z" style="stroke: none; stroke-width: 1; stroke-dasharray: none; stroke-linecap: butt; stroke-linejoin: miter; stroke-miterlimit: 10; fill: rgb(0,0,0); fill-rule: nonzero; opacity: 1;" transform=" matrix(1 0 0 1 0 0) " stroke-linecap="round" />
	<path d="M 75.628 53.936 c -3.431 0 -6.221 2.79 -6.221 6.221 s 2.79 6.222 6.221 6.222 c 3.431 0 6.222 -2.791 6.222 -6.222 S 79.059 53.936 75.628 53.936 z M 75.628 63.411 c -1.795 0 -3.254 -1.46 -3.254 -3.255 s 1.459 -3.254 3.254 -3.254 c 1.795 0 3.255 1.459 3.255 3.254 S 77.423 63.411 75.628 63.411 z" style="stroke: none; stroke-width: 1; stroke-dasharray: none; stroke-linecap: butt; stroke-linejoin: miter; stroke-miterlimit: 10; fill: rgb(0,0,0); fill-rule: nonzero; opacity: 1;" transform=" matrix(1 0 0 1 0 0) " stroke-linecap="round" />
</g>
</svg>